<svg width="120" height="27" viewBox="0 0 120 27" fill="none" xmlns="http://www.w3.org/2000/svg">
<path fill-rule="evenodd" clip-rule="evenodd" d="M2.12141 2.19281H26.6598L28.4671 0H0L2.12141 2.19281ZM4.78374 5.33829L10.4072 5.36021L10.5484 8.79392L12.47 6.41374C13.5269 5.10438 14.5885 3.78358 14.8295 3.47853L15.2671 2.92375H2.70269L4.78374 5.33829ZM15.8328 6.44066C14.1624 8.52652 14.2744 7.80142 14.2768 16.5049C14.278 20.8601 14.3582 24.5414 14.4552 24.6854C14.5523 24.8294 15.3075 25.4092 16.133 25.9735L17.6342 27V7.97734L24.2396 7.97709L26.3079 5.54088H16.5534L15.8328 6.44066ZM10.658 10.2051L10.7233 14.9055L10.7886 22.3971L12.1671 23.3578C12.9252 23.8863 13.6023 24.261 13.672 24.1906C13.7414 24.12 13.7697 17.9499 13.7347 13.8905L13.671 6.50998L10.658 10.2051Z" fill="white"/>
<path d="M35.8015 8.27029H43.0054V9.79772H37.5497V13.0994H42.282V14.6269H37.5497V19.0703H35.8015V8.27029Z" fill="white"/>
<path d="M44.2165 9.73601V8.84115L44.8344 8.22401H45.7537L46.3716 8.84115V9.73601L45.7537 10.3532H44.8344L44.2165 9.73601ZM44.4425 11.3869H46.1455V19.0703H44.4425V11.3869Z" fill="white"/>
<path d="M48.2508 11.3869H49.8333V12.7909L51.2047 11.3869H53.5859L55.1683 13.0069V19.0703H53.4653V13.4852L52.8776 12.8834H51.5212L49.9538 14.5034V19.0703H48.2508V11.3869Z" fill="white"/>
<path d="M56.9766 9.73601V8.84115L57.5945 8.22401H58.5138L59.1317 8.84115V9.73601L58.5138 10.3532H57.5945L56.9766 9.73601ZM57.2027 11.3869H58.9057V19.0703H57.2027V11.3869Z" fill="white"/>
<path d="M61.6892 17.5429V12.868H60.3328V11.3869H61.7193V8.88744H63.3922V11.3869H65.698V12.868H63.3922V16.9874L63.9799 17.5892H65.698V19.0703H63.1812L61.6892 17.5429Z" fill="white"/>
<path d="M73.9171 11.3869V20.8909L72.3648 22.4646H68.5368L67.2106 21.1223V20.104H68.9136V20.6132L69.2753 20.9989H71.6264L72.2141 20.3817V17.7589L70.9482 19.0703H68.5218L66.9846 17.4812V11.3869H68.6876V16.972L69.2753 17.5737H70.6468L72.2141 15.9074V11.3869H73.9171Z" fill="white"/>
<path d="M82.3215 9.79772H79.1566V8.27029H87.2345V9.79772H84.0697V19.0703H82.3215V9.79772Z" fill="white"/>
<path d="M87.0134 17.5274V12.9297L88.5054 11.3869H92.665L94.1721 12.9297V17.5274L92.665 19.0703H88.5054L87.0134 17.5274ZM91.8662 17.6046L92.469 16.9874V13.4697L91.8662 12.8526H89.3193L88.7164 13.4697V16.9874L89.3193 17.6046H91.8662Z" fill="white"/>
<path d="M95.9046 17.512V11.3869H97.6076V16.972L98.1954 17.5737H99.5065L101.104 15.9383V11.3869H102.807V19.0703H101.225V17.6509L99.823 19.0703H97.4268L95.9046 17.512Z" fill="white"/>
<path d="M104.616 17.5429V12.9143L106.093 11.3869H110.056L111.548 12.9297V14.1949H109.845V13.4852L109.242 12.8834H106.921L106.319 13.4852V16.972L106.921 17.5737H109.242L109.845 16.972V16.2623H111.548V17.5274L110.056 19.0703H106.093L104.616 17.5429Z" fill="white"/>
<path d="M113.052 8.05429H114.755V12.7137L116.051 11.3869H118.418L120 13.0069V19.0703H118.297V13.4852L117.709 12.8834H116.323L114.755 14.5034V19.0703H113.052V8.05429Z" fill="white"/>
</svg>
